<svg xmlns="http://www.w3.org/2000/svg" width="165" height="35" viewBox="0 0 165 35"><rect class="svg__rect" x="0" y="0" width="77.43" height="35" fill="#31C4F3"/><rect class="svg__rect" x="75.43" y="0" width="89.57" height="35" fill="#FF87F2"/><path class="svg__text" d="M16.25 14.66L13.61 14.66L13.61 13.47L20.38 13.47L20.38 14.66L17.72 14.66L17.72 22L16.25 22L16.25 14.66ZM25.62 22L24.14 22L24.14 13.47L27.14 13.47Q28.61 13.47 29.42 14.13Q30.22 14.79 30.22 16.05L30.22 16.05Q30.22 16.90 29.81 17.48Q29.39 18.06 28.65 18.37L28.65 18.37L30.57 21.92L30.57 22L28.98 22L27.27 18.71L25.62 18.71L25.62 22ZM25.62 14.66L25.62 17.52L27.14 17.52Q27.89 17.52 28.31 17.15Q28.74 16.77 28.74 16.11L28.74 16.11Q28.74 15.43 28.35 15.05Q27.96 14.68 27.18 14.66L27.18 14.66L25.62 14.66ZM35.39 22L33.85 22L37.07 13.47L38.40 13.47L41.63 22L40.09 22L39.39 20.01L36.08 20.01L35.39 22ZM37.74 15.28L36.50 18.82L38.97 18.82L37.74 15.28ZM47.07 22L45.59 22L45.59 13.47L47.07 13.47L50.89 19.54L50.89 13.47L52.36 13.47L52.36 22L50.87 22L47.07 15.95L47.07 22ZM56.66 19.42L56.66 19.42L58.14 19.42Q58.14 20.15 58.63 20.55Q59.11 20.95 60.00 20.95L60.00 20.95Q60.78 20.95 61.17 20.63Q61.56 20.32 61.56 19.80L61.56 19.80Q61.56 19.24 61.16 18.94Q60.76 18.63 59.73 18.32Q58.70 18.01 58.09 17.63L58.09 17.63Q56.93 16.90 56.93 15.72L56.93 15.72Q56.93 14.69 57.77 14.02Q58.61 13.35 59.95 13.35L59.95 13.35Q60.84 13.35 61.54 13.68Q62.23 14.01 62.63 14.61Q63.03 15.22 63.03 15.96L63.03 15.96L61.56 15.96Q61.56 15.29 61.14 14.91Q60.72 14.54 59.94 14.54L59.94 14.54Q59.21 14.54 58.81 14.85Q58.41 15.16 58.41 15.71L58.41 15.71Q58.41 16.18 58.84 16.50Q59.28 16.81 60.27 17.10Q61.27 17.40 61.87 17.78Q62.48 18.16 62.76 18.65Q63.04 19.13 63.04 19.79L63.04 19.79Q63.04 20.86 62.22 21.49Q61.40 22.12 60.00 22.12L60.00 22.12Q59.08 22.12 58.30 21.77Q57.52 21.43 57.09 20.83Q56.66 20.22 56.66 19.42Z" fill="#FFFFFF"/><path class="svg__text" d="M92.00 22L89.62 22L89.62 13.60L93.46 13.60Q94.60 13.60 95.44 13.98Q96.28 14.35 96.74 15.06Q97.19 15.76 97.19 16.71L97.19 16.71Q97.19 17.62 96.77 18.30Q96.34 18.98 95.55 19.36L95.55 19.36L97.36 22L94.82 22L93.29 19.77L92.00 19.77L92.00 22ZM92.00 15.47L92.00 17.93L93.32 17.93Q94.05 17.93 94.42 17.61Q94.79 17.29 94.79 16.71L94.79 16.71Q94.79 16.12 94.42 15.79Q94.05 15.47 93.32 15.47L93.32 15.47L92.00 15.47ZM104.36 22L101.98 22L101.98 13.60L104.36 13.60L104.36 22ZM109.11 17.80L109.11 17.80Q109.11 16.54 109.70 15.54Q110.30 14.55 111.37 13.99Q112.44 13.43 113.78 13.43L113.78 13.43Q114.96 13.43 115.90 13.83Q116.83 14.22 117.46 14.97L117.46 14.97L115.94 16.33Q115.10 15.40 113.92 15.40L113.92 15.40Q113.91 15.40 113.91 15.40L113.91 15.40Q112.83 15.40 112.16 16.06Q111.50 16.71 111.50 17.80L111.50 17.80Q111.50 18.50 111.80 19.04Q112.11 19.59 112.65 19.89Q113.18 20.20 113.88 20.20L113.88 20.20Q114.57 20.20 115.16 19.93L115.16 19.93L115.16 17.62L117.26 17.62L117.26 21.10Q116.54 21.61 115.61 21.89Q114.67 22.17 113.74 22.17L113.74 22.17Q112.42 22.17 111.36 21.61Q110.30 21.05 109.70 20.05Q109.11 19.06 109.11 17.80ZM124.63 22L122.25 22L122.25 13.60L124.63 13.60L124.63 16.76L127.87 16.76L127.87 13.60L130.25 13.60L130.25 22L127.87 22L127.87 18.72L124.63 18.72L124.63 22ZM137.20 15.48L134.62 15.48L134.62 13.60L142.14 13.60L142.14 15.48L139.57 15.48L139.57 22L137.20 22L137.20 15.48ZM145.93 21.24L145.93 21.24L146.71 19.49Q147.27 19.86 148.01 20.09Q148.76 20.32 149.48 20.32L149.48 20.32Q150.84 20.32 150.85 19.64L150.85 19.64Q150.85 19.28 150.46 19.11Q150.07 18.93 149.20 18.74L149.20 18.74Q148.25 18.53 147.62 18.30Q146.98 18.06 146.53 17.55Q146.07 17.03 146.07 16.16L146.07 16.16Q146.07 15.39 146.49 14.77Q146.91 14.15 147.75 13.79Q148.58 13.43 149.79 13.43L149.79 13.43Q150.61 13.43 151.42 13.62Q152.23 13.80 152.84 14.17L152.84 14.17L152.11 15.93Q150.91 15.28 149.78 15.28L149.78 15.28Q149.07 15.28 148.74 15.49Q148.42 15.70 148.42 16.04L148.42 16.04Q148.42 16.37 148.81 16.54Q149.19 16.71 150.04 16.89L150.04 16.89Q151.00 17.10 151.63 17.33Q152.26 17.56 152.72 18.07Q153.19 18.58 153.19 19.46L153.19 19.46Q153.19 20.21 152.77 20.83Q152.35 21.44 151.51 21.80Q150.67 22.17 149.47 22.17L149.47 22.17Q148.45 22.17 147.49 21.92Q146.52 21.67 145.93 21.24Z" fill="#FFFFFF" x="88.43"/></svg>